<svg xmlns="http://www.w3.org/2000/svg" version="1.0" viewBox="0 0 512 512"><path fill="#fff" d="M248.1 1.1c-1.8.6-5 2.1-7 3.4-2 1.3-46.4 45.2-98.7 97.7-64.9 65-95.7 96.6-97 99.3-1.3 2.8-1.9 6.2-1.9 11.5 0 10.2 2.1 13.8 15.9 27.8 13.4 13.6 18.3 16.5 28.4 16.5 12.6 0 10.7 1.6 72.5-60.1l55.7-55.7v173.7c0 172.2 0 173.8 2 179.2 2.8 7.4 9.8 13.9 17.4 16.1 4.5 1.3 9.1 1.6 22.4 1.3 14.5-.3 17.3-.6 21.3-2.5 5.6-2.5 11.8-8.4 14.4-13.8 2-3.9 2-7.5 2.5-179.3l.5-175.2 56 56c61.7 61.7 60.1 60.4 72.2 60.3 9.6-.1 14.8-3.1 27.9-16.5 13.8-14 15.9-17.6 15.9-27.8-.1-6.2-.5-8.4-2.7-12.5-3.6-6.8-192.4-195.3-198.2-198-4.7-2.1-14.8-2.8-19.5-1.4z"/></svg>