<?xml version="1.0" standalone="no"?>
<!DOCTYPE svg PUBLIC "-//W3C//DTD SVG 20010904//EN"
 "http://www.w3.org/TR/2001/REC-SVG-20010904/DTD/svg10.dtd">
<svg version="1.0" xmlns="http://www.w3.org/2000/svg"
 width="512.000000pt" height="512.000000pt" viewBox="0 0 512.000000 512.000000"
 preserveAspectRatio="xMidYMid meet">

<g transform="translate(0.000000,512.000000) scale(0.100000,-0.100000)"
fill="#000000" stroke="none">
<path d="M935 4886 c-16 -7 -37 -22 -46 -32 -9 -11 -211 -341 -450 -734 -421
-694 -434 -716 -434 -766 0 -44 5 -57 42 -105 187 -241 2414 -2987 2436 -3003
36 -27 112 -28 149 -4 30 20 2453 3014 2476 3060 9 18 12 45 9 68 -6 49 -868
1473 -910 1504 l-28 21 -1607 2 c-1318 2 -1612 0 -1637 -11z m1015 -273 c0 -5
-99 -257 -221 -560 l-221 -553 -554 0 c-305 0 -554 3 -554 6 0 4 151 256 336
560 l336 554 439 0 c241 0 439 -3 439 -7z m1136 -553 l222 -555 -374 -3 c-206
-1 -542 -1 -748 0 l-374 3 214 535 c117 294 218 545 224 558 l10 22 302 -2
302 -3 222 -555z m1298 6 c185 -304 336 -556 336 -560 0 -3 -249 -6 -554 -6
l-554 0 -221 553 c-122 303 -221 555 -221 560 0 4 198 7 439 7 l439 0 336
-554z m-2885 -863 c12 -25 691 -2146 688 -2150 -4 -3 -1740 2144 -1745 2158
-2 5 206 9 522 9 490 0 526 -1 535 -17z m1821 5 c0 -21 -753 -2368 -760 -2368
-7 0 -760 2347 -760 2368 0 9 159 12 760 12 601 0 760 -3 760 -12z m1358 3
c-5 -14 -1741 -2161 -1745 -2158 -3 4 676 2125 688 2150 9 16 45 17 535 17
317 0 524 -4 522 -9z"/>
</g>
</svg>
