<?xml version="1.0" standalone="no"?>
<!DOCTYPE svg PUBLIC "-//W3C//DTD SVG 20010904//EN"
 "http://www.w3.org/TR/2001/REC-SVG-20010904/DTD/svg10.dtd">
<svg version="1.0" xmlns="http://www.w3.org/2000/svg"
 width="512.000000pt" height="512.000000pt" viewBox="0 0 512.000000 512.000000"
 preserveAspectRatio="xMidYMid meet">

<g transform="translate(0.000000,512.000000) scale(0.100000,-0.100000)"
fill="#000000" stroke="none">
<path d="M4035 5107 c-82 -27 -115 -55 -353 -291 l-243 -240 563 -563 c310
-310 568 -563 574 -563 5 0 117 107 247 239 275 277 292 302 292 431 0 138 -4
143 -428 567 -323 323 -380 376 -431 399 -69 31 -162 40 -221 21z"/>
<path d="M1900 3035 l-1125 -1125 568 -567 567 -568 1125 1125 1125 1125 -568
568 -567 567 -1125 -1125z"/>
<path d="M336 1450 c-9 -24 -335 -1444 -333 -1447 4 -4 1442 329 1449 336 4 4
-244 258 -552 566 -372 372 -561 554 -564 545z"/>
</g>
</svg>
